{"glyphs":{"\u0000":{"ha":0,"x_min":0,"x_max":0,"o":""},"\r":{"ha":347,"x_min":0,"x_max":0,"o":""}," ":{"ha":347,"x_min":0,"x_max":0,"o":""},"A":{"ha":947,"x_min":0,"x_max":0,"o":"m 503 1143 b 932 669 700 1143 889 935 b 868 217 964 471 940 301 b 732 156 833 176 788 156 b 543 450 546 156 543 447 b 503 456 543 474 510 478 b 313 89 503 453 429 196 b 193 40 279 58 236 40 b -1 344 103 40 -1 121 b 179 868 -1 496 68 696 b 503 1143 288 1038 413 1143 z m 193 0 b 340 60 246 0 299 21 b 513 353 419 132 479 264 b 732 115 533 242 594 115 b 900 190 800 115 857 140 b 972 676 979 285 1007 467 b 503 1183 926 961 719 1183 b -42 344 279 1183 -42 690 b 192 0 -42 90 85 0 z m 519 607 b 560 603 517 581 557 576 l 588 833 b 547 838 590 860 550 864 z "},"B":{"ha":818,"x_min":0,"x_max":0,"o":"m 392 753 b 413 771 403 753 411 760 l 439 997 b 421 1021 440 1008 432 1019 b 399 1003 411 1022 400 1014 l 372 775 b 390 753 371 764 379 754 b 392 753 390 753 392 753 z m 303 192 b 324 210 313 192 322 199 l 350 438 b 332 460 351 449 343 458 b 310 442 321 461 311 453 l 283 214 b 300 192 282 203 290 193 b 303 192 301 192 303 192 z m 597 1124 b 758 1054 672 1124 726 1100 b 769 929 782 1019 786 975 b 425 668 733 824 606 726 l 319 639 b 307 614 310 636 304 625 b 331 600 310 604 321 599 l 436 629 b 613 651 501 644 561 651 b 810 550 722 651 789 618 b 765 311 832 478 817 393 b 369 47 683 178 529 75 b 288 40 340 43 313 40 b -1 403 36 40 -1 267 b 338 1063 -1 793 83 960 b 597 1124 406 1090 506 1124 z m 860 483 b 847 563 860 510 856 538 b 613 692 829 621 774 692 b 585 690 603 692 593 692 b 808 915 700 751 778 831 b 792 1076 828 974 822 1031 b 597 1164 753 1135 688 1164 b 322 1100 499 1164 393 1129 b -42 403 54 990 -42 808 b 288 0 -42 147 78 0 b 376 8 315 0 346 3 b 800 290 546 36 713 147 b 860 482 839 354 860 419 z "},"C":{"ha":844,"x_min":0,"x_max":0,"o":"m 289 656 b 311 553 293 621 300 586 b 249 503 289 538 268 521 z m 363 538 b 601 601 436 579 519 601 b 633 600 613 601 622 601 b 465 478 579 528 519 483 b 363 538 421 474 388 493 z m 496 1161 b 722 1075 599 1161 683 1129 b 660 639 793 975 746 778 b 601 642 640 640 621 642 b 347 575 515 642 425 618 b 326 797 315 669 325 796 b 308 819 326 808 319 818 b 286 804 299 821 289 814 l 188 432 b 199 408 186 424 190 414 b 224 415 207 404 218 407 b 329 515 253 454 288 488 b 453 436 364 451 415 436 b 469 438 458 436 464 438 b 679 594 540 444 615 501 b 832 489 753 579 807 542 b 782 232 861 428 842 326 b 397 1 713 119 575 1 b 285 18 360 1 322 7 b 44 819 -53 115 -29 399 b 496 1161 86 1054 308 1161 z m 397 -40 b 817 210 590 -40 740 89 b 868 507 885 318 904 432 b 701 631 839 568 781 611 b 754 1099 790 778 836 983 b 496 1201 708 1163 613 1201 b 6 826 292 1201 50 1085 b 272 -22 -58 467 -125 94 b 397 -40 314 -33 357 -40 z "},"D":{"ha":986,"x_min":0,"x_max":0,"o":"m 546 406 b 565 424 556 406 564 414 l 592 654 b 575 676 593 665 586 675 b 551 658 564 678 553 669 l 525 429 b 543 406 524 418 532 407 b 546 406 543 406 544 406 z m 358 619 b 314 639 367 649 328 650 b 38 589 186 544 89 526 b 126 996 -31 669 -1 878 b 607 1106 235 1097 424 1140 b 939 888 764 1076 885 997 b 890 297 1017 732 994 478 b 550 68 808 158 689 76 b 376 132 472 63 415 85 b 358 619 261 278 357 617 z m 531 26 b 553 28 538 26 546 26 b 925 278 704 36 836 125 b 976 906 1038 472 1060 736 b 615 1146 915 1026 785 1114 b 99 1026 443 1178 229 1147 b 6 563 -35 903 -82 668 b 307 585 36 526 124 460 b 344 107 283 482 242 236 b 531 26 388 54 450 26 z "},"E":{"ha":865,"x_min":0,"x_max":0,"o":"m 511 1156 b 533 1154 518 1156 525 1154 b 867 924 721 1147 864 1026 b 694 803 868 857 806 813 b 460 790 607 794 528 790 b 301 803 406 790 356 800 b 281 786 292 804 282 796 b 296 763 279 776 285 765 b 514 681 344 749 510 749 b 179 514 519 599 243 538 b 167 489 169 511 164 500 b 190 475 169 479 179 474 b 608 560 333 507 458 560 b 832 474 721 560 796 531 b 828 224 878 403 876 311 b 413 0 754 88 590 0 l 413 0 b 369 1 399 0 383 0 b 94 125 247 10 154 51 b 10 615 11 225 -17 385 b 511 1156 39 864 188 1156 z m 907 921 b 907 924 907 922 907 924 b 535 1194 904 1046 750 1186 b 511 1196 526 1196 519 1196 b -31 619 160 1196 0 885 b 63 99 -58 378 -28 208 b 367 -39 131 17 233 -29 b 413 -40 382 -40 397 -40 l 413 -40 b 864 204 606 -40 782 56 b 865 496 919 306 919 411 b 608 600 822 565 735 600 b 497 592 574 600 538 597 b 554 682 538 621 557 651 b 508 751 553 710 538 732 b 699 763 565 753 629 756 b 907 921 829 774 907 833 z "},"F":{"ha":921,"x_min":0,"x_max":0,"o":"m 475 1164 b 754 1146 582 1164 685 1154 b 903 1040 828 1136 878 1101 b 835 704 944 936 900 785 b 689 640 800 663 750 640 b 538 676 617 649 599 663 b 514 663 528 678 517 672 b 524 638 510 653 515 643 b 725 486 589 606 729 585 b 676 432 724 449 710 432 b 604 450 649 432 618 444 b 590 456 597 454 593 456 b 567 443 581 458 571 453 b 576 418 564 433 568 424 b 586 414 576 418 581 417 b 678 247 599 406 639 372 b 664 121 694 199 689 156 b 456 40 628 71 547 40 b 222 139 351 40 261 79 b 15 982 122 300 -50 682 b 475 1164 49 1132 283 1164 z m 960 949 b 940 1056 960 986 954 1022 b 758 1186 919 1107 871 1172 b 475 1204 689 1194 583 1204 b -25 990 175 1204 7 1132 b -40 838 -35 940 -40 890 l -40 836 b 189 118 -40 561 94 267 b 456 0 243 31 363 0 b 696 97 563 0 651 36 b 717 260 729 142 736 199 b 658 393 697 322 676 364 b 676 392 664 393 671 392 b 767 483 731 392 764 425 b 704 600 768 526 747 567 b 865 679 771 604 826 631 b 960 949 919 744 960 850 z "},"G":{"ha":871,"x_min":0,"x_max":0,"o":"m 394 693 b 401 619 394 669 397 644 b 368 608 390 617 379 613 z m 450 590 b 774 568 583 621 697 614 b 728 515 760 547 744 531 b 574 471 683 476 632 461 b 475 536 531 479 499 500 b 450 590 464 551 456 571 z m 588 1142 b 711 1115 629 1142 671 1133 b 868 924 800 1078 865 999 b 794 603 872 839 850 703 b 440 629 708 656 585 664 b 456 893 419 749 454 890 b 440 917 458 903 451 914 b 417 904 431 919 419 914 l 319 592 b 293 582 311 589 301 585 b 133 382 190 540 132 468 b 256 214 135 308 183 240 b 565 336 301 197 425 175 b 564 365 574 344 572 358 b 535 364 556 372 543 372 b 269 253 447 263 351 222 b 175 383 214 272 175 325 b 308 544 174 450 222 510 b 411 579 343 558 378 569 b 440 514 418 556 428 533 b 567 432 471 468 513 440 b 754 485 638 419 700 438 b 806 543 774 501 790 521 b 808 540 807 543 808 542 b 856 299 869 483 888 396 b 471 49 817 181 660 78 b 83 165 300 22 156 65 b 24 589 1 279 -19 431 b 310 1024 67 746 168 900 b 588 1142 399 1101 494 1142 z m -39 431 b 50 142 -39 324 -8 225 b 376 0 117 50 233 0 b 478 8 408 0 443 3 b 894 286 681 39 851 154 b 836 571 931 399 910 503 b 828 578 833 574 831 576 b 908 925 892 692 913 839 b 726 1153 906 1015 831 1108 b 283 1054 586 1214 425 1178 b -15 600 136 926 29 764 b -39 432 -31 542 -39 486 z "},"H":{"ha":892,"x_min":0,"x_max":0,"o":"m 813 338 b 615 19 753 160 674 32 b 586 15 606 17 596 15 l 586 15 b 435 321 451 15 436 268 l 526 324 b 547 344 538 324 547 333 b 526 364 546 356 538 364 l 294 358 b 275 338 283 358 275 349 b 294 318 275 326 285 318 b 296 318 296 318 296 318 l 393 321 b 274 40 390 235 365 44 b 210 93 267 40 244 46 b 18 960 92 256 -50 756 b 122 1068 40 1029 79 1068 b 368 606 217 1068 332 910 b 378 507 371 547 376 508 b 400 490 379 496 389 489 b 418 511 410 492 418 500 b 408 608 415 544 413 578 b 513 1008 404 713 413 901 b 708 1092 561 1061 628 1089 b 889 872 811 1096 872 1021 b 813 338 904 731 875 525 z m 929 878 b 715 1132 906 1088 800 1132 b 707 1132 713 1132 710 1132 b 483 1036 615 1129 539 1097 b 376 783 419 968 389 876 b 122 1108 317 1006 211 1108 b -21 972 60 1108 7 1058 b 178 69 -93 754 51 242 b 276 0 213 21 244 -1 b 414 167 354 3 393 86 b 415 158 414 164 415 161 b 586 -25 454 7 529 -25 l 586 -25 b 625 -21 599 -25 611 -24 b 933 786 769 13 933 461 l 933 788 b 929 878 933 819 932 849 z "},"I":{"ha":507,"x_min":0,"x_max":0,"o":"m 511 950 b 471 868 501 919 488 892 b 260 1004 421 956 349 1004 b 154 985 226 1004 192 997 b 111 964 139 979 125 972 b 122 1065 108 997 111 1031 b 335 1243 153 1171 240 1243 b 383 1236 351 1243 368 1242 b 501 1131 435 1221 476 1183 b 511 950 525 1076 529 1013 z m 119 919 b 168 946 133 932 150 940 b 260 964 200 957 231 964 b 442 835 349 964 406 907 b 299 772 403 796 351 772 b 249 779 282 772 265 775 b 119 919 183 799 138 853 z m 297 -65 b 288 -67 294 -67 290 -67 l 288 -67 b 18 388 176 -67 61 129 b 86 889 -14 578 -1 785 b 238 740 113 818 165 761 b 299 732 257 735 278 732 b 460 796 357 732 414 756 b 507 557 494 706 504 604 b 297 -65 524 256 419 -53 z m 563 1029 b 538 1147 563 1069 554 1110 b 396 1275 508 1211 458 1257 b 335 1285 376 1281 356 1285 l 335 1285 l 333 1285 b 83 1076 222 1283 119 1199 b 74 936 68 1029 67 981 b -39 572 -8 858 -39 718 l -39 572 b -22 381 -39 507 -33 442 b 288 -107 17 146 131 -107 l 288 -107 l 288 -107 b 303 -106 292 -107 297 -107 b 547 558 467 -89 564 258 b 490 828 542 667 522 757 b 550 939 517 860 538 897 b 563 1028 558 968 563 999 z m 335 1285 l 335 1285 l 333 1285 z "},"J":{"ha":936,"x_min":0,"x_max":0,"o":"m 600 -67 b 503 -76 567 -72 535 -76 l 503 -76 b 28 307 243 -76 85 131 b 61 621 -18 447 -4 574 b 147 649 88 639 115 649 b 479 408 306 649 478 411 b 507 404 485 400 497 397 b 513 432 515 410 518 422 b 399 757 439 549 399 663 b 613 961 496 774 581 853 b 622 1001 617 975 619 988 b 639 1001 628 1001 633 1001 b 933 575 815 1001 914 788 b 600 -67 960 292 853 -19 z m 579 993 b 574 974 578 988 576 981 b 401 799 547 883 479 817 b 415 860 404 821 408 840 b 575 993 442 926 496 971 b 579 993 576 993 578 993 z m 194 908 b 185 1089 171 963 167 1026 b 397 1267 217 1193 304 1267 b 447 1260 414 1267 432 1264 b 585 1036 536 1233 590 1140 b 564 1032 578 1035 571 1033 b 378 875 474 1007 408 953 b 360 794 368 850 363 824 b 313 803 343 796 328 797 b 194 908 261 818 219 856 z m 503 -117 b 607 -107 538 -117 572 -112 b 974 579 885 -54 1001 278 b 639 1042 953 810 840 1042 b 626 1042 635 1042 631 1042 b 458 1299 629 1160 564 1267 b 399 1307 439 1304 419 1307 l 397 1307 l 397 1307 b 146 1100 285 1307 182 1222 b 158 892 125 1029 129 956 b 300 764 188 828 238 782 b 358 754 319 758 339 754 b 403 557 360 694 374 626 b 147 689 333 622 240 689 b 38 653 107 689 71 678 b -40 463 -14 617 -40 549 l -40 461 b -11 296 -40 411 -31 354 b 503 -117 50 106 221 -117 z m 397 1307 l 399 1307 l 397 1307 z "},"K":{"ha":1104,"x_min":0,"x_max":0,"o":"m 417 376 b 418 440 419 414 418 440 b 399 461 418 451 408 460 b 378 442 388 461 378 453 b 376 376 378 440 375 415 b 175 43 371 275 339 43 b 150 44 167 43 158 43 b 3 397 -3 64 -4 297 b 357 1125 22 715 197 1125 b 376 1124 364 1125 369 1125 b 490 1040 431 1111 468 1085 b 433 625 560 896 435 628 b 443 599 429 615 433 603 b 469 606 453 593 464 596 b 924 1093 546 742 775 1093 b 1010 1035 958 1093 986 1074 b 1025 907 1035 992 1040 950 b 589 586 978 763 732 644 b 483 546 549 575 513 561 b 474 519 474 542 469 529 b 499 508 478 511 489 506 b 601 547 500 510 542 522 b 800 572 663 563 733 572 b 1079 488 929 572 1032 540 b 1072 283 1114 449 1111 371 b 675 -6 1010 144 858 -6 l 672 -6 b 417 376 457 -4 419 233 z m 675 -47 b 1108 267 876 -47 1040 115 b 1110 514 1156 371 1156 463 b 800 613 1054 576 942 613 b 740 610 781 613 761 611 b 1064 894 876 678 1025 776 b 1044 1056 1082 949 1075 1003 b 924 1133 1013 1107 972 1133 b 532 782 793 1133 632 931 b 526 1058 554 872 565 979 b 385 1163 499 1113 451 1149 b 357 1167 376 1165 367 1167 b -39 400 156 1167 -19 708 b 144 4 -53 165 14 21 b 175 3 156 3 165 3 b 394 221 282 3 358 81 b 671 -47 422 93 494 -44 z "},"L":{"ha":885,"x_min":0,"x_max":0,"o":"m 299 1203 b 468 1125 374 1203 429 1178 b 467 406 618 924 468 411 b 478 381 464 396 469 385 b 504 389 488 378 499 381 b 719 563 571 500 649 563 b 814 519 754 563 786 547 b 885 300 860 472 886 390 b 563 40 881 144 751 40 b 264 126 464 40 360 71 b 10 907 67 240 -32 633 b 204 1192 24 1000 68 1161 b 299 1203 238 1199 269 1203 z m -40 778 b 243 92 -40 510 64 196 b 563 0 346 32 456 0 b 925 300 771 0 921 124 b 843 547 928 401 897 492 b 719 603 808 583 765 603 b 532 499 672 603 606 582 b 501 1149 569 665 621 989 b 194 1231 438 1235 333 1263 b -31 913 76 1204 -3 1092 b -40 779 -37 871 -40 825 z "},"M":{"ha":1157,"x_min":0,"x_max":0,"o":"m 757 464 b 788 628 776 553 788 628 b 771 651 789 639 782 649 b 747 636 760 653 750 647 b 717 471 747 633 729 564 b 601 199 675 276 629 203 b 599 197 600 199 600 197 b 433 404 586 197 535 213 b 375 519 404 469 376 518 b 349 528 369 529 358 532 b 339 501 339 522 335 511 b 396 386 340 499 363 449 b 443 100 451 258 468 157 b 389 51 433 76 415 61 b 181 161 328 32 251 72 b 22 907 57 315 -44 614 b 210 1115 54 1043 118 1115 b 568 668 363 1115 561 904 b 588 649 568 657 576 649 l 588 649 b 608 668 599 649 608 657 b 879 1158 608 674 614 1149 b 882 1158 881 1158 882 1158 b 1149 615 1015 1158 1122 882 b 960 46 1175 356 1126 79 b 910 40 942 42 925 40 b 806 85 867 40 832 56 b 757 464 736 164 740 335 z m 1196 488 b 1189 619 1196 532 1193 576 b 882 1199 1160 907 1046 1199 b 878 1199 881 1199 879 1199 b 581 815 676 1192 606 971 b 210 1156 519 1000 361 1156 b -17 917 146 1156 31 1125 b -39 717 -32 849 -39 782 l -39 715 b 149 136 -39 481 49 263 b 357 6 215 53 289 6 b 401 14 372 6 388 8 b 481 85 439 26 465 50 b 486 240 500 128 499 183 b 599 157 550 157 585 157 b 608 158 601 157 606 157 b 707 286 624 161 663 167 b 776 57 711 197 729 111 b 910 0 810 19 854 0 l 910 0 b 967 6 928 0 947 1 b 1196 485 1138 40 1196 263 z "},"N":{"ha":910,"x_min":0,"x_max":0,"o":"m 139 967 b 440 615 228 967 335 842 b 531 394 481 493 528 399 b 556 385 535 385 546 381 b 567 410 565 389 571 400 b 478 631 567 411 532 513 b 454 1049 432 768 390 953 b 574 1113 479 1088 518 1108 b 590 1114 579 1114 585 1114 b 875 771 714 1114 819 986 b 744 69 943 506 913 161 b 654 43 714 53 683 43 b 342 415 500 43 393 276 b 303 539 324 486 304 536 b 278 551 300 549 289 554 b 265 526 268 547 263 538 b 303 404 265 525 278 474 b 301 60 346 240 346 118 b 206 14 281 31 249 15 b 8 397 89 10 28 210 b 119 965 -19 671 35 947 b 139 967 126 967 132 967 z m 203 -26 b 207 -26 204 -26 206 -26 b 333 35 263 -25 306 -4 b 374 242 372 86 379 163 b 654 3 440 113 533 3 b 764 33 690 3 728 14 b 914 782 951 138 988 494 b 592 1154 854 1014 733 1154 l 590 1154 l 590 1154 b 569 1154 583 1154 576 1154 b 419 1071 501 1147 451 1119 b 393 792 379 1010 371 915 b 139 1007 307 935 221 1007 b 111 1004 129 1007 121 1007 b -32 393 -14 979 -60 667 b 201 -26 -6 131 82 -26 z m 590 1154 l 592 1154 l 590 1154 z "},"O":{"ha":731,"x_min":0,"x_max":0,"o":"m 368 418 b 389 436 379 418 388 425 l 415 665 b 399 689 417 676 410 688 b 375 671 388 690 376 682 l 349 440 b 367 418 347 429 356 419 b 368 418 367 418 368 418 z m 525 1142 b 721 942 561 1142 681 1128 b 510 178 761 758 676 385 b 276 40 436 86 358 40 l 276 40 b 139 83 232 40 186 56 b 21 508 -21 182 -12 369 b 519 1142 94 804 350 1129 b 525 1142 519 1142 522 1142 z m 771 839 b 760 950 771 881 767 918 b 525 1182 713 1171 556 1182 b 515 1182 519 1182 515 1182 b -18 518 329 1168 60 833 b 118 49 -71 303 -22 136 b 276 0 171 17 224 0 l 276 0 b 542 151 369 0 461 53 b 771 839 686 332 771 632 z "},"P":{"ha":906,"x_min":0,"x_max":0,"o":"m 388 590 b 408 608 397 590 407 597 l 435 838 b 417 860 436 849 428 860 b 394 843 406 861 396 854 l 368 613 b 385 590 367 601 374 592 b 388 590 386 590 388 590 z m 517 1200 b 758 1125 603 1200 686 1174 b 903 835 865 1051 917 949 b 651 532 886 703 782 579 b 451 488 571 503 504 488 b 393 497 410 488 393 497 l 393 497 b 365 496 385 504 372 503 b 367 467 358 488 360 475 b 542 136 426 410 574 239 b 404 49 529 93 482 63 b 318 40 374 43 346 40 l 318 40 b 104 133 228 40 156 72 b 22 725 8 244 -21 456 b 517 1200 72 1036 308 1200 z m 318 0 b 411 8 347 0 379 3 b 581 125 506 26 563 65 b 442 447 613 231 506 374 b 451 447 444 447 449 447 b 665 493 508 447 581 463 b 943 829 810 546 925 683 b 781 1158 960 958 901 1075 b 517 1240 703 1211 611 1240 b 176 1106 394 1240 274 1192 b -18 732 74 1013 7 883 b -37 500 -31 649 -37 571 l -37 499 b 72 107 -37 326 0 192 b 318 0 133 36 215 0 z "},"Q":{"ha":938,"x_min":0,"x_max":0,"o":"m 365 399 b 386 417 375 399 385 407 l 413 647 b 394 669 414 658 406 668 b 372 651 383 671 374 663 l 346 422 b 363 400 344 411 351 401 b 365 399 364 400 365 399 z m 210 89 b 207 88 208 89 207 88 b 182 86 207 88 197 86 b 47 147 150 86 88 94 b 33 529 -8 218 -12 350 b 676 1146 133 915 439 1146 b 879 1071 757 1146 826 1119 b 836 639 992 967 918 778 b 621 349 744 482 622 350 b 396 185 499 219 397 186 b 383 163 388 182 382 172 b 403 146 385 153 393 146 b 718 46 499 146 686 125 b 618 -140 735 1 701 -62 b 436 -237 550 -206 489 -237 l 436 -237 b 231 71 276 -237 231 68 b 222 85 229 76 226 81 b 210 89 218 88 214 89 z m 976 931 b 907 1100 976 1000 953 1057 b 676 1186 846 1157 767 1186 b -6 539 424 1186 99 944 b 15 122 -56 346 -49 206 b 182 46 67 56 142 46 b 193 46 186 46 190 46 b 436 -278 207 -26 265 -278 l 436 -278 b 646 -169 499 -278 569 -242 b 756 61 744 -78 781 -1 b 482 182 721 147 576 174 b 651 321 525 208 585 251 b 871 618 651 322 776 457 b 976 929 942 739 976 843 z "},"R":{"ha":990,"x_min":0,"x_max":0,"o":"m 390 628 b 410 646 400 628 408 636 l 438 876 b 419 899 439 888 431 897 b 397 881 408 900 399 892 l 369 651 b 388 628 368 640 376 629 b 390 628 389 628 389 628 z m 340 415 b 336 415 339 415 338 415 b 319 392 325 413 318 403 b 321 386 319 392 321 390 b 296 90 325 365 363 181 b 204 40 274 61 244 44 b 190 40 199 40 194 40 l 190 40 b 79 101 147 40 110 61 b 56 772 -12 226 -24 514 b 646 1142 129 1014 408 1142 b 867 1081 742 1142 821 1119 b 933 846 933 1024 958 935 b 529 565 894 704 743 600 b 492 560 506 563 492 560 b 475 538 481 558 474 549 b 497 519 476 526 486 519 b 533 525 510 522 522 524 b 638 532 557 528 594 532 b 982 346 774 532 944 499 b 938 133 1006 247 971 175 b 681 11 879 58 779 11 b 575 36 642 11 604 19 b 361 394 428 118 367 367 b 360 400 360 399 360 400 b 340 415 357 410 349 415 z m 1031 282 b 1021 354 1031 306 1028 329 b 700 569 990 481 878 556 b 972 835 842 625 940 719 b 893 1111 1001 939 971 1044 b 646 1182 840 1157 751 1182 b 17 785 393 1182 96 1046 b 46 78 -67 510 -54 213 b 190 0 85 26 133 0 l 190 0 b 207 0 196 0 201 0 b 328 67 260 6 300 28 b 375 225 360 110 372 168 b 556 0 413 142 471 49 b 681 -31 590 -19 635 -31 b 969 108 790 -31 904 24 b 1031 281 1010 160 1031 218 z "},"S":{"ha":957,"x_min":0,"x_max":0,"o":"m 335 825 b 338 782 335 810 336 796 b 303 763 325 775 313 769 z m 388 758 b 678 792 456 785 550 804 b 479 711 618 739 546 708 b 390 754 436 714 407 728 b 388 758 389 756 389 757 z m 168 382 b 689 581 249 597 486 644 b 714 593 699 578 710 583 b 700 619 717 604 711 615 b 289 590 697 621 465 690 b 74 590 260 579 147 543 b 3 746 31 617 6 669 b 333 1172 -8 954 167 1103 b 740 1161 504 1243 671 1239 b 765 908 800 1094 810 1003 b 713 828 751 879 733 853 b 376 799 565 849 454 828 b 417 979 369 863 400 946 b 407 1006 421 989 417 1001 b 379 997 397 1011 385 1007 l 219 693 b 226 667 215 683 218 672 b 254 671 236 661 247 663 b 351 742 254 672 285 708 b 356 733 353 739 354 736 b 478 671 379 694 419 674 b 729 785 565 667 660 711 b 744 783 735 785 739 783 b 951 601 860 763 931 700 b 717 117 985 442 879 225 b 226 111 565 18 346 15 b 168 382 171 156 115 239 z m 563 1263 b 318 1210 489 1263 404 1244 b -39 764 144 1138 -39 983 l -39 763 b -39 743 -39 757 -39 750 b 51 556 -33 653 -4 590 b 211 529 101 525 161 522 b 131 396 179 496 151 451 b 201 79 82 267 107 154 b 453 0 268 26 358 0 l 454 0 b 739 83 551 0 654 28 b 992 610 914 199 1028 435 b 760 821 968 722 886 797 b 801 892 776 843 790 867 b 771 1189 854 1001 842 1110 b 565 1263 726 1238 653 1263 z "},"T":{"ha":910,"x_min":0,"x_max":0,"o":"m 233 658 b 228 657 232 658 229 658 b 131 640 190 646 157 640 b 46 672 93 640 65 650 b 6 974 -6 726 -4 856 b 449 1154 17 1124 253 1154 b 743 1135 561 1154 671 1144 b 893 1031 818 1126 868 1090 b 824 694 935 926 889 775 b 679 629 789 651 740 629 b 532 664 601 629 532 664 b 507 660 524 668 514 665 b 506 635 501 653 500 642 b 665 267 507 633 579 521 b 651 133 683 215 678 171 b 422 40 611 76 521 40 b 213 129 326 40 247 75 b 253 631 108 296 250 626 b 249 651 256 638 254 646 b 233 658 244 656 239 658 z m -40 861 b 15 644 -40 771 -28 692 b 131 599 43 614 82 599 b 200 608 151 599 174 601 b 178 107 164 511 83 258 b 422 0 221 40 311 0 b 685 110 535 0 636 42 b 704 279 718 158 725 217 b 568 607 647 444 599 550 b 679 589 597 597 638 589 b 856 668 753 589 813 615 b 931 1046 931 760 978 926 b 749 1175 910 1097 861 1161 b 449 1194 675 1185 564 1194 b -35 976 139 1194 -24 1121 b -40 861 -37 938 -40 899 z "},"U":{"ha":979,"x_min":0,"x_max":0,"o":"m 531 242 b 513 231 524 242 517 238 b 307 53 513 229 432 86 b 3 292 131 7 24 108 b 179 1047 -19 489 40 892 b 304 1104 219 1092 261 1111 b 408 438 478 1078 428 586 b 394 346 399 382 394 346 b 411 324 393 335 400 325 b 435 340 422 321 432 329 b 447 431 435 342 440 376 b 579 914 469 561 514 799 b 781 1044 621 990 706 1044 b 978 742 888 1044 960 935 b 800 119 1003 454 903 232 b 649 31 749 63 690 29 b 586 61 622 33 603 42 b 551 219 542 114 551 218 b 538 240 551 229 546 238 b 531 242 535 242 533 242 z m 1022 647 b 1018 746 1022 679 1021 711 b 781 1085 990 1053 843 1085 b 543 933 692 1085 593 1022 b 471 739 515 885 492 814 b 311 1144 472 938 439 1125 b 150 1075 253 1153 199 1129 b -42 382 22 932 -42 601 l -42 381 b -37 288 -42 347 -40 315 b 318 14 -14 78 118 -39 b 511 156 406 38 472 107 b 556 35 515 117 526 68 b 646 -10 579 7 610 -7 b 653 -10 649 -10 650 -10 b 831 93 707 -10 771 28 b 1022 646 878 144 1022 329 z "},"V":{"ha":1004,"x_min":0,"x_max":0,"o":"m 186 1079 b 524 364 501 1079 524 371 b 542 344 524 353 532 344 b 564 361 553 343 563 351 b 865 982 588 535 688 982 b 936 960 888 982 911 975 b 983 660 1032 906 1007 749 b 481 40 908 381 663 40 b 460 42 474 40 467 42 b 1 849 278 69 8 544 b 139 1075 -1 981 46 1057 b 186 1079 156 1078 171 1079 z m 454 1 b 1022 650 672 -25 944 356 b 957 996 1068 822 1044 944 b 865 1022 925 1014 894 1022 b 551 519 690 1022 594 714 b 186 1119 525 742 442 1119 b 132 1114 168 1119 150 1118 b -39 847 17 1092 -42 1000 b 132 319 -36 700 29 499 b 454 1 238 136 357 14 z "},"W":{"ha":1121,"x_min":0,"x_max":0,"o":"m 258 1017 b 503 535 467 1017 499 614 b 503 504 503 517 503 506 b 525 486 504 494 514 485 b 544 507 536 486 544 496 b 543 535 544 507 544 518 b 614 717 543 576 546 710 b 618 717 615 717 617 717 b 718 554 657 717 693 658 b 732 486 726 513 732 488 b 756 471 735 476 744 469 b 772 494 767 474 774 483 b 758 563 772 496 768 524 b 801 1057 739 674 706 942 b 961 1106 838 1100 890 1117 b 1122 769 1111 1081 1126 885 b 821 42 1110 436 932 51 b 742 72 790 40 764 50 b 656 469 674 143 651 324 b 656 486 656 475 656 481 b 636 507 656 497 647 506 b 615 488 625 507 615 499 b 614 471 615 488 615 481 b 351 1 604 194 496 1 b 181 82 296 1 238 29 b 19 779 35 218 -40 543 b 207 1010 40 867 92 978 b 258 1017 225 1014 243 1017 z m 351 -40 b 628 263 479 -40 581 76 b 713 44 640 179 665 93 b 825 1 744 13 781 -1 b 1163 768 978 15 1150 458 b 968 1144 1171 990 1101 1124 b 769 1082 883 1158 817 1138 b 699 708 697 996 689 843 b 610 757 676 740 647 761 b 526 688 568 753 542 725 b 258 1057 499 850 431 1057 b 196 1049 239 1057 218 1054 b -21 789 90 1019 15 931 b 153 53 -83 542 -1 197 b 351 -40 218 -8 285 -39 z "},"X":{"ha":1054,"x_min":0,"x_max":0,"o":"m 510 349 b 490 336 501 349 494 343 b 211 44 489 333 369 44 b 46 153 157 44 101 81 b 7 311 3 211 -11 264 b 308 493 54 439 306 493 b 325 511 317 494 324 503 b 311 532 325 521 319 529 b 68 821 217 567 81 688 b 200 1033 60 904 104 976 b 308 1068 239 1056 275 1068 b 574 688 501 1068 572 690 b 593 671 575 678 583 671 l 593 671 b 613 688 603 671 611 678 b 867 1126 636 810 726 1126 b 965 1081 897 1126 931 1111 b 1033 935 1015 1038 1038 990 b 707 556 1018 751 710 557 b 700 528 697 550 694 538 b 728 521 706 518 718 515 b 893 561 728 521 801 561 b 1001 540 932 561 968 554 b 1054 401 1039 524 1058 474 b 813 36 1046 257 947 76 b 765 28 797 31 781 28 b 529 332 596 28 531 329 b 511 349 528 340 521 347 b 510 349 511 349 510 349 z m -42 269 b 14 128 -42 225 -24 176 b 504 269 203 -122 392 46 b 765 -12 535 174 613 -12 b 825 -3 785 -12 804 -10 b 1094 400 981 43 1086 242 b 1017 578 1100 490 1071 554 b 893 601 979 593 938 601 b 833 597 872 601 853 600 b 1074 932 932 675 1063 801 b 992 1111 1079 1000 1051 1060 b 867 1167 950 1149 907 1167 b 593 778 715 1167 629 914 b 308 1108 557 900 472 1108 b 179 1068 268 1108 225 1094 b 28 817 42 986 21 886 b 246 519 39 690 149 575 b -32 325 163 494 10 435 b -42 269 -39 307 -42 289 z "},"Y":{"ha":796,"x_min":0,"x_max":0,"o":"m 174 447 b 363 551 231 525 301 567 b 460 465 410 542 442 513 b 285 421 414 443 350 421 b 174 447 244 421 207 429 z m 508 446 b 531 458 517 450 524 454 l 515 400 b 508 446 514 415 511 431 z m 151 414 b 285 381 192 392 236 381 b 471 426 354 381 421 403 b 467 238 483 358 472 281 b 463 206 465 224 464 213 b 481 185 463 194 469 186 b 503 199 490 182 500 189 l 585 500 b 575 522 586 510 583 518 b 551 522 568 528 558 528 b 496 485 551 522 531 504 b 371 592 472 542 431 578 b 139 469 278 614 190 540 b 82 531 118 486 99 506 b 63 1096 -35 690 -14 940 b 246 1249 111 1192 178 1247 l 249 1249 b 451 874 414 1249 450 1044 l 440 689 b 460 668 440 678 449 669 b 481 686 469 668 479 675 l 492 871 b 686 1229 508 1006 556 1229 b 697 1229 690 1229 693 1229 b 756 1193 724 1226 743 1215 b 642 557 829 1074 699 693 b 644 536 639 550 640 543 b 664 529 649 531 656 528 b 674 529 664 529 667 529 b 767 489 692 529 736 525 b 786 289 799 449 806 382 b 357 -15 746 99 536 -15 b 150 61 271 -15 197 11 b 151 414 61 154 88 306 z m -42 813 b 49 507 -42 704 -15 594 b 117 435 69 478 92 454 b 121 33 44 314 17 142 b 357 -56 176 -25 260 -56 b 825 281 553 -56 781 69 b 797 514 847 386 838 465 b 690 569 765 554 719 567 b 790 1214 733 678 878 1072 b 700 1269 771 1247 740 1265 b 686 1269 696 1269 692 1269 b 479 1029 592 1269 521 1188 b 249 1289 451 1200 372 1289 l 244 1289 b 26 1114 161 1288 82 1224 b -42 814 -15 1029 -42 922 z "},"Z":{"ha":889,"x_min":0,"x_max":0,"o":"m 678 663 b 729 653 694 663 711 660 b 457 504 656 576 549 531 b 678 663 514 585 593 663 z m 278 429 b 368 443 299 432 331 436 b 313 336 344 401 325 364 z m 486 724 b 483 724 485 724 483 724 b 356 715 482 724 428 715 b 39 815 246 715 103 733 b 17 990 6 858 -3 918 b 378 1221 60 1160 232 1221 b 813 939 569 1221 786 1122 b 756 685 828 840 808 756 b 678 703 731 697 704 703 b 397 490 583 703 489 632 b 249 468 314 471 250 468 b 233 458 243 468 236 464 b 231 440 229 453 229 446 l 292 275 b 311 263 294 268 303 263 b 329 275 319 263 326 267 b 422 454 331 276 365 363 b 765 633 531 479 674 532 b 814 593 782 624 797 610 b 861 263 894 510 913 383 b 306 15 767 42 524 -33 b -1 313 111 60 -6 174 b 489 683 4 463 158 635 b 506 707 500 685 507 696 b 486 724 504 717 496 724 z m -42 303 b 296 -24 -42 149 88 24 b 899 246 533 -78 796 7 b 843 621 956 382 935 526 b 792 665 826 639 808 653 b 853 944 849 743 868 838 b 378 1261 824 1150 586 1261 b -24 1000 217 1261 26 1193 b 7 790 -46 915 -35 844 b 294 678 68 711 188 683 b -42 315 71 596 -36 447 b -42 304 -42 311 -42 308 z "},".":{"ha":639,"x_min":0,"x_max":0,"o":"m 331 513 b 379 506 347 513 364 510 b 507 219 486 474 543 344 b 294 40 475 114 388 40 b 244 47 276 40 260 43 b 128 154 193 63 151 101 b 117 333 103 208 99 272 b 331 513 149 439 236 513 z m 294 0 b 546 207 406 0 510 85 b 390 544 589 354 519 506 b 331 553 371 550 350 553 b 78 346 218 553 114 468 b 90 138 57 275 61 200 b 233 8 119 74 169 28 b 294 0 253 3 274 0 z "},"a":{"ha":947,"x_min":0,"x_max":0,"o":"m 503 1143 b 932 669 700 1143 889 935 b 868 217 964 471 940 301 b 732 156 833 176 788 156 b 543 450 546 156 543 447 b 503 456 543 474 510 478 b 313 89 503 453 429 196 b 193 40 279 58 236 40 b -1 344 103 40 -1 121 b 179 868 -1 496 68 696 b 503 1143 288 1038 413 1143 z m 193 0 b 340 60 246 0 299 21 b 513 353 419 132 479 264 b 732 115 533 242 594 115 b 900 190 800 115 857 140 b 972 676 979 285 1007 467 b 503 1183 926 961 719 1183 b -42 344 279 1183 -42 690 b 192 0 -42 90 85 0 z m 519 607 b 560 603 517 581 557 576 l 588 833 b 547 838 590 860 550 864 z "},"b":{"ha":818,"x_min":0,"x_max":0,"o":"m 392 753 b 413 771 403 753 411 760 l 439 997 b 421 1021 440 1008 432 1019 b 399 1003 411 1022 400 1014 l 372 775 b 390 753 371 764 379 754 b 392 753 390 753 392 753 z m 303 192 b 324 210 313 192 322 199 l 350 438 b 332 460 351 449 343 458 b 310 442 321 461 311 453 l 283 214 b 300 192 282 203 290 193 b 303 192 301 192 303 192 z m 597 1124 b 758 1054 672 1124 726 1100 b 769 929 782 1019 786 975 b 425 668 733 824 606 726 l 319 639 b 307 614 310 636 304 625 b 331 600 310 604 321 599 l 436 629 b 613 651 501 644 561 651 b 810 550 722 651 789 618 b 765 311 832 478 817 393 b 369 47 683 178 529 75 b 288 40 340 43 313 40 b -1 403 36 40 -1 267 b 338 1063 -1 793 83 960 b 597 1124 406 1090 506 1124 z m 860 483 b 847 563 860 510 856 538 b 613 692 829 621 774 692 b 585 690 603 692 593 692 b 808 915 700 751 778 831 b 792 1076 828 974 822 1031 b 597 1164 753 1135 688 1164 b 322 1100 499 1164 393 1129 b -42 403 54 990 -42 808 b 288 0 -42 147 78 0 b 376 8 315 0 346 3 b 800 290 546 36 713 147 b 860 482 839 354 860 419 z "},"c":{"ha":844,"x_min":0,"x_max":0,"o":"m 289 656 b 311 553 293 621 300 586 b 249 503 289 538 268 521 z m 363 538 b 601 601 436 579 519 601 b 633 600 613 601 622 601 b 465 478 579 528 519 483 b 363 538 421 474 388 493 z m 496 1161 b 722 1075 599 1161 683 1129 b 660 639 793 975 746 778 b 601 642 640 640 621 642 b 347 575 515 642 425 618 b 326 797 315 669 325 796 b 308 819 326 808 319 818 b 286 804 299 821 289 814 l 188 432 b 199 408 186 424 190 414 b 224 415 207 404 218 407 b 329 515 253 454 288 488 b 453 436 364 451 415 436 b 469 438 458 436 464 438 b 679 594 540 444 615 501 b 832 489 753 579 807 542 b 782 232 861 428 842 326 b 397 1 713 119 575 1 b 285 18 360 1 322 7 b 44 819 -53 115 -29 399 b 496 1161 86 1054 308 1161 z m 397 -40 b 817 210 590 -40 740 89 b 868 507 885 318 904 432 b 701 631 839 568 781 611 b 754 1099 790 778 836 983 b 496 1201 708 1163 613 1201 b 6 826 292 1201 50 1085 b 272 -22 -58 467 -125 94 b 397 -40 314 -33 357 -40 z "},"d":{"ha":986,"x_min":0,"x_max":0,"o":"m 546 406 b 565 424 556 406 564 414 l 592 654 b 575 676 593 665 586 675 b 551 658 564 678 553 669 l 525 429 b 543 406 524 418 532 407 b 546 406 543 406 544 406 z m 358 619 b 314 639 367 649 328 650 b 38 589 186 544 89 526 b 126 996 -31 669 -1 878 b 607 1106 235 1097 424 1140 b 939 888 764 1076 885 997 b 890 297 1017 732 994 478 b 550 68 808 158 689 76 b 376 132 472 63 415 85 b 358 619 261 278 357 617 z m 531 26 b 553 28 538 26 546 26 b 925 278 704 36 836 125 b 976 906 1038 472 1060 736 b 615 1146 915 1026 785 1114 b 99 1026 443 1178 229 1147 b 6 563 -35 903 -82 668 b 307 585 36 526 124 460 b 344 107 283 482 242 236 b 531 26 388 54 450 26 z "},"e":{"ha":865,"x_min":0,"x_max":0,"o":"m 511 1156 b 533 1154 518 1156 525 1154 b 867 924 721 1147 864 1026 b 694 803 868 857 806 813 b 460 790 607 794 528 790 b 301 803 406 790 356 800 b 281 786 292 804 282 796 b 296 763 279 776 285 765 b 514 681 344 749 510 749 b 179 514 519 599 243 538 b 167 489 169 511 164 500 b 190 475 169 479 179 474 b 608 560 333 507 458 560 b 832 474 721 560 796 531 b 828 224 878 403 876 311 b 413 0 754 88 590 0 l 413 0 b 369 1 399 0 383 0 b 94 125 247 10 154 51 b 10 615 11 225 -17 385 b 511 1156 39 864 188 1156 z m 907 921 b 907 924 907 922 907 924 b 535 1194 904 1046 750 1186 b 511 1196 526 1196 519 1196 b -31 619 160 1196 0 885 b 63 99 -58 378 -28 208 b 367 -39 131 17 233 -29 b 413 -40 382 -40 397 -40 l 413 -40 b 864 204 606 -40 782 56 b 865 496 919 306 919 411 b 608 600 822 565 735 600 b 497 592 574 600 538 597 b 554 682 538 621 557 651 b 508 751 553 710 538 732 b 699 763 565 753 629 756 b 907 921 829 774 907 833 z "},"f":{"ha":921,"x_min":0,"x_max":0,"o":"m 475 1164 b 754 1146 582 1164 685 1154 b 903 1040 828 1136 878 1101 b 835 704 944 936 900 785 b 689 640 800 663 750 640 b 538 676 617 649 599 663 b 514 663 528 678 517 672 b 524 638 510 653 515 643 b 725 486 589 606 729 585 b 676 432 724 449 710 432 b 604 450 649 432 618 444 b 590 456 597 454 593 456 b 567 443 581 458 571 453 b 576 418 564 433 568 424 b 586 414 576 418 581 417 b 678 247 599 406 639 372 b 664 121 694 199 689 156 b 456 40 628 71 547 40 b 222 139 351 40 261 79 b 15 982 122 300 -50 682 b 475 1164 49 1132 283 1164 z m 960 949 b 940 1056 960 986 954 1022 b 758 1186 919 1107 871 1172 b 475 1204 689 1194 583 1204 b -25 990 175 1204 7 1132 b -40 838 -35 940 -40 890 l -40 836 b 189 118 -40 561 94 267 b 456 0 243 31 363 0 b 696 97 563 0 651 36 b 717 260 729 142 736 199 b 658 393 697 322 676 364 b 676 392 664 393 671 392 b 767 483 731 392 764 425 b 704 600 768 526 747 567 b 865 679 771 604 826 631 b 960 949 919 744 960 850 z "},"g":{"ha":871,"x_min":0,"x_max":0,"o":"m 394 693 b 401 619 394 669 397 644 b 368 608 390 617 379 613 z m 450 590 b 774 568 583 621 697 614 b 728 515 760 547 744 531 b 574 471 683 476 632 461 b 475 536 531 479 499 500 b 450 590 464 551 456 571 z m 588 1142 b 711 1115 629 1142 671 1133 b 868 924 800 1078 865 999 b 794 603 872 839 850 703 b 440 629 708 656 585 664 b 456 893 419 749 454 890 b 440 917 458 903 451 914 b 417 904 431 919 419 914 l 319 592 b 293 582 311 589 301 585 b 133 382 190 540 132 468 b 256 214 135 308 183 240 b 565 336 301 197 425 175 b 564 365 574 344 572 358 b 535 364 556 372 543 372 b 269 253 447 263 351 222 b 175 383 214 272 175 325 b 308 544 174 450 222 510 b 411 579 343 558 378 569 b 440 514 418 556 428 533 b 567 432 471 468 513 440 b 754 485 638 419 700 438 b 806 543 774 501 790 521 b 808 540 807 543 808 542 b 856 299 869 483 888 396 b 471 49 817 181 660 78 b 83 165 300 22 156 65 b 24 589 1 279 -19 431 b 310 1024 67 746 168 900 b 588 1142 399 1101 494 1142 z m -39 431 b 50 142 -39 324 -8 225 b 376 0 117 50 233 0 b 478 8 408 0 443 3 b 894 286 681 39 851 154 b 836 571 931 399 910 503 b 828 578 833 574 831 576 b 908 925 892 692 913 839 b 726 1153 906 1015 831 1108 b 283 1054 586 1214 425 1178 b -15 600 136 926 29 764 b -39 432 -31 542 -39 486 z "},"h":{"ha":892,"x_min":0,"x_max":0,"o":"m 813 338 b 615 19 753 160 674 32 b 586 15 606 17 596 15 l 586 15 b 435 321 451 15 436 268 l 526 324 b 547 344 538 324 547 333 b 526 364 546 356 538 364 l 294 358 b 275 338 283 358 275 349 b 294 318 275 326 285 318 b 296 318 296 318 296 318 l 393 321 b 274 40 390 235 365 44 b 210 93 267 40 244 46 b 18 960 92 256 -50 756 b 122 1068 40 1029 79 1068 b 368 606 217 1068 332 910 b 378 507 371 547 376 508 b 400 490 379 496 389 489 b 418 511 410 492 418 500 b 408 608 415 544 413 578 b 513 1008 404 713 413 901 b 708 1092 561 1061 628 1089 b 889 872 811 1096 872 1021 b 813 338 904 731 875 525 z m 929 878 b 715 1132 906 1088 800 1132 b 707 1132 713 1132 710 1132 b 483 1036 615 1129 539 1097 b 376 783 419 968 389 876 b 122 1108 317 1006 211 1108 b -21 972 60 1108 7 1058 b 178 69 -93 754 51 242 b 276 0 213 21 244 -1 b 414 167 354 3 393 86 b 415 158 414 164 415 161 b 586 -25 454 7 529 -25 l 586 -25 b 625 -21 599 -25 611 -24 b 933 786 769 13 933 461 l 933 788 b 929 878 933 819 932 849 z "},"i":{"ha":507,"x_min":0,"x_max":0,"o":"m 511 950 b 471 868 501 919 488 892 b 260 1004 421 956 349 1004 b 154 985 226 1004 192 997 b 111 964 139 979 125 972 b 122 1065 108 997 111 1031 b 335 1243 153 1171 240 1243 b 383 1236 351 1243 368 1242 b 501 1131 435 1221 476 1183 b 511 950 525 1076 529 1013 z m 119 919 b 168 946 133 932 150 940 b 260 964 200 957 231 964 b 442 835 349 964 406 907 b 299 772 403 796 351 772 b 249 779 282 772 265 775 b 119 919 183 799 138 853 z m 297 -65 b 288 -67 294 -67 290 -67 l 288 -67 b 18 388 176 -67 61 129 b 86 889 -14 578 -1 785 b 238 740 113 818 165 761 b 299 732 257 735 278 732 b 460 796 357 732 414 756 b 507 557 494 706 504 604 b 297 -65 524 256 419 -53 z m 563 1029 b 538 1147 563 1069 554 1110 b 396 1275 508 1211 458 1257 b 335 1285 376 1281 356 1285 l 335 1285 l 333 1285 b 83 1076 222 1283 119 1199 b 74 936 68 1029 67 981 b -39 572 -8 858 -39 718 l -39 572 b -22 381 -39 507 -33 442 b 288 -107 17 146 131 -107 l 288 -107 l 288 -107 b 303 -106 292 -107 297 -107 b 547 558 467 -89 564 258 b 490 828 542 667 522 757 b 550 939 517 860 538 897 b 563 1028 558 968 563 999 z m 335 1285 l 335 1285 l 333 1285 z "},"j":{"ha":936,"x_min":0,"x_max":0,"o":"m 600 -67 b 503 -76 567 -72 535 -76 l 503 -76 b 28 307 243 -76 85 131 b 61 621 -18 447 -4 574 b 147 649 88 639 115 649 b 479 408 306 649 478 411 b 507 404 485 400 497 397 b 513 432 515 410 518 422 b 399 757 439 549 399 663 b 613 961 496 774 581 853 b 622 1001 617 975 619 988 b 639 1001 628 1001 633 1001 b 933 575 815 1001 914 788 b 600 -67 960 292 853 -19 z m 579 993 b 574 974 578 988 576 981 b 401 799 547 883 479 817 b 415 860 404 821 408 840 b 575 993 442 926 496 971 b 579 993 576 993 578 993 z m 194 908 b 185 1089 171 963 167 1026 b 397 1267 217 1193 304 1267 b 447 1260 414 1267 432 1264 b 585 1036 536 1233 590 1140 b 564 1032 578 1035 571 1033 b 378 875 474 1007 408 953 b 360 794 368 850 363 824 b 313 803 343 796 328 797 b 194 908 261 818 219 856 z m 503 -117 b 607 -107 538 -117 572 -112 b 974 579 885 -54 1001 278 b 639 1042 953 810 840 1042 b 626 1042 635 1042 631 1042 b 458 1299 629 1160 564 1267 b 399 1307 439 1304 419 1307 l 397 1307 l 397 1307 b 146 1100 285 1307 182 1222 b 158 892 125 1029 129 956 b 300 764 188 828 238 782 b 358 754 319 758 339 754 b 403 557 360 694 374 626 b 147 689 333 622 240 689 b 38 653 107 689 71 678 b -40 463 -14 617 -40 549 l -40 461 b -11 296 -40 411 -31 354 b 503 -117 50 106 221 -117 z m 397 1307 l 399 1307 l 397 1307 z "},"k":{"ha":1104,"x_min":0,"x_max":0,"o":"m 417 376 b 418 440 419 414 418 440 b 399 461 418 451 408 460 b 378 442 388 461 378 453 b 376 376 378 440 375 415 b 175 43 371 275 339 43 b 150 44 167 43 158 43 b 3 397 -3 64 -4 297 b 357 1125 22 715 197 1125 b 376 1124 364 1125 369 1125 b 490 1040 431 1111 468 1085 b 433 625 560 896 435 628 b 443 599 429 615 433 603 b 469 606 453 593 464 596 b 924 1093 546 742 775 1093 b 1010 1035 958 1093 986 1074 b 1025 907 1035 992 1040 950 b 589 586 978 763 732 644 b 483 546 549 575 513 561 b 474 519 474 542 469 529 b 499 508 478 511 489 506 b 601 547 500 510 542 522 b 800 572 663 563 733 572 b 1079 488 929 572 1032 540 b 1072 283 1114 449 1111 371 b 675 -6 1010 144 858 -6 l 672 -6 b 417 376 457 -4 419 233 z m 675 -47 b 1108 267 876 -47 1040 115 b 1110 514 1156 371 1156 463 b 800 613 1054 576 942 613 b 740 610 781 613 761 611 b 1064 894 876 678 1025 776 b 1044 1056 1082 949 1075 1003 b 924 1133 1013 1107 972 1133 b 532 782 793 1133 632 931 b 526 1058 554 872 565 979 b 385 1163 499 1113 451 1149 b 357 1167 376 1165 367 1167 b -39 400 156 1167 -19 708 b 144 4 -53 165 14 21 b 175 3 156 3 165 3 b 394 221 282 3 358 81 b 671 -47 422 93 494 -44 z "},"l":{"ha":885,"x_min":0,"x_max":0,"o":"m 299 1203 b 468 1125 374 1203 429 1178 b 467 406 618 924 468 411 b 478 381 464 396 469 385 b 504 389 488 378 499 381 b 719 563 571 500 649 563 b 814 519 754 563 786 547 b 885 300 860 472 886 390 b 563 40 881 144 751 40 b 264 126 464 40 360 71 b 10 907 67 240 -32 633 b 204 1192 24 1000 68 1161 b 299 1203 238 1199 269 1203 z m -40 778 b 243 92 -40 510 64 196 b 563 0 346 32 456 0 b 925 300 771 0 921 124 b 843 547 928 401 897 492 b 719 603 808 583 765 603 b 532 499 672 603 606 582 b 501 1149 569 665 621 989 b 194 1231 438 1235 333 1263 b -31 913 76 1204 -3 1092 b -40 779 -37 871 -40 825 z "},"m":{"ha":1157,"x_min":0,"x_max":0,"o":"m 757 464 b 788 628 776 553 788 628 b 771 651 789 639 782 649 b 747 636 760 653 750 647 b 717 471 747 633 729 564 b 601 199 675 276 629 203 b 599 197 600 199 600 197 b 433 404 586 197 535 213 b 375 519 404 469 376 518 b 349 528 369 529 358 532 b 339 501 339 522 335 511 b 396 386 340 499 363 449 b 443 100 451 258 468 157 b 389 51 433 76 415 61 b 181 161 328 32 251 72 b 22 907 57 315 -44 614 b 210 1115 54 1043 118 1115 b 568 668 363 1115 561 904 b 588 649 568 657 576 649 l 588 649 b 608 668 599 649 608 657 b 879 1158 608 674 614 1149 b 882 1158 881 1158 882 1158 b 1149 615 1015 1158 1122 882 b 960 46 1175 356 1126 79 b 910 40 942 42 925 40 b 806 85 867 40 832 56 b 757 464 736 164 740 335 z m 1196 488 b 1189 619 1196 532 1193 576 b 882 1199 1160 907 1046 1199 b 878 1199 881 1199 879 1199 b 581 815 676 1192 606 971 b 210 1156 519 1000 361 1156 b -17 917 146 1156 31 1125 b -39 717 -32 849 -39 782 l -39 715 b 149 136 -39 481 49 263 b 357 6 215 53 289 6 b 401 14 372 6 388 8 b 481 85 439 26 465 50 b 486 240 500 128 499 183 b 599 157 550 157 585 157 b 608 158 601 157 606 157 b 707 286 624 161 663 167 b 776 57 711 197 729 111 b 910 0 810 19 854 0 l 910 0 b 967 6 928 0 947 1 b 1196 485 1138 40 1196 263 z "},"n":{"ha":910,"x_min":0,"x_max":0,"o":"m 139 967 b 440 615 228 967 335 842 b 531 394 481 493 528 399 b 556 385 535 385 546 381 b 567 410 565 389 571 400 b 478 631 567 411 532 513 b 454 1049 432 768 390 953 b 574 1113 479 1088 518 1108 b 590 1114 579 1114 585 1114 b 875 771 714 1114 819 986 b 744 69 943 506 913 161 b 654 43 714 53 683 43 b 342 415 500 43 393 276 b 303 539 324 486 304 536 b 278 551 300 549 289 554 b 265 526 268 547 263 538 b 303 404 265 525 278 474 b 301 60 346 240 346 118 b 206 14 281 31 249 15 b 8 397 89 10 28 210 b 119 965 -19 671 35 947 b 139 967 126 967 132 967 z m 203 -26 b 207 -26 204 -26 206 -26 b 333 35 263 -25 306 -4 b 374 242 372 86 379 163 b 654 3 440 113 533 3 b 764 33 690 3 728 14 b 914 782 951 138 988 494 b 592 1154 854 1014 733 1154 l 590 1154 l 590 1154 b 569 1154 583 1154 576 1154 b 419 1071 501 1147 451 1119 b 393 792 379 1010 371 915 b 139 1007 307 935 221 1007 b 111 1004 129 1007 121 1007 b -32 393 -14 979 -60 667 b 201 -26 -6 131 82 -26 z m 590 1154 l 592 1154 l 590 1154 z "},"o":{"ha":731,"x_min":0,"x_max":0,"o":"m 368 418 b 389 436 379 418 388 425 l 415 665 b 399 689 417 676 410 688 b 375 671 388 690 376 682 l 349 440 b 367 418 347 429 356 419 b 368 418 367 418 368 418 z m 525 1142 b 721 942 561 1142 681 1128 b 510 178 761 758 676 385 b 276 40 436 86 358 40 l 276 40 b 139 83 232 40 186 56 b 21 508 -21 182 -12 369 b 519 1142 94 804 350 1129 b 525 1142 519 1142 522 1142 z m 771 839 b 760 950 771 881 767 918 b 525 1182 713 1171 556 1182 b 515 1182 519 1182 515 1182 b -18 518 329 1168 60 833 b 118 49 -71 303 -22 136 b 276 0 171 17 224 0 l 276 0 b 542 151 369 0 461 53 b 771 839 686 332 771 632 z "},"p":{"ha":906,"x_min":0,"x_max":0,"o":"m 388 590 b 408 608 397 590 407 597 l 435 838 b 417 860 436 849 428 860 b 394 843 406 861 396 854 l 368 613 b 385 590 367 601 374 592 b 388 590 386 590 388 590 z m 517 1200 b 758 1125 603 1200 686 1174 b 903 835 865 1051 917 949 b 651 532 886 703 782 579 b 451 488 571 503 504 488 b 393 497 410 488 393 497 l 393 497 b 365 496 385 504 372 503 b 367 467 358 488 360 475 b 542 136 426 410 574 239 b 404 49 529 93 482 63 b 318 40 374 43 346 40 l 318 40 b 104 133 228 40 156 72 b 22 725 8 244 -21 456 b 517 1200 72 1036 308 1200 z m 318 0 b 411 8 347 0 379 3 b 581 125 506 26 563 65 b 442 447 613 231 506 374 b 451 447 444 447 449 447 b 665 493 508 447 581 463 b 943 829 810 546 925 683 b 781 1158 960 958 901 1075 b 517 1240 703 1211 611 1240 b 176 1106 394 1240 274 1192 b -18 732 74 1013 7 883 b -37 500 -31 649 -37 571 l -37 499 b 72 107 -37 326 0 192 b 318 0 133 36 215 0 z "},"q":{"ha":938,"x_min":0,"x_max":0,"o":"m 365 399 b 386 417 375 399 385 407 l 413 647 b 394 669 414 658 406 668 b 372 651 383 671 374 663 l 346 422 b 363 400 344 411 351 401 b 365 399 364 400 365 399 z m 210 89 b 207 88 208 89 207 88 b 182 86 207 88 197 86 b 47 147 150 86 88 94 b 33 529 -8 218 -12 350 b 676 1146 133 915 439 1146 b 879 1071 757 1146 826 1119 b 836 639 992 967 918 778 b 621 349 744 482 622 350 b 396 185 499 219 397 186 b 383 163 388 182 382 172 b 403 146 385 153 393 146 b 718 46 499 146 686 125 b 618 -140 735 1 701 -62 b 436 -237 550 -206 489 -237 l 436 -237 b 231 71 276 -237 231 68 b 222 85 229 76 226 81 b 210 89 218 88 214 89 z m 976 931 b 907 1100 976 1000 953 1057 b 676 1186 846 1157 767 1186 b -6 539 424 1186 99 944 b 15 122 -56 346 -49 206 b 182 46 67 56 142 46 b 193 46 186 46 190 46 b 436 -278 207 -26 265 -278 l 436 -278 b 646 -169 499 -278 569 -242 b 756 61 744 -78 781 -1 b 482 182 721 147 576 174 b 651 321 525 208 585 251 b 871 618 651 322 776 457 b 976 929 942 739 976 843 z "},"r":{"ha":990,"x_min":0,"x_max":0,"o":"m 390 628 b 410 646 400 628 408 636 l 438 876 b 419 899 439 888 431 897 b 397 881 408 900 399 892 l 369 651 b 388 628 368 640 376 629 b 390 628 389 628 389 628 z m 340 415 b 336 415 339 415 338 415 b 319 392 325 413 318 403 b 321 386 319 392 321 390 b 296 90 325 365 363 181 b 204 40 274 61 244 44 b 190 40 199 40 194 40 l 190 40 b 79 101 147 40 110 61 b 56 772 -12 226 -24 514 b 646 1142 129 1014 408 1142 b 867 1081 742 1142 821 1119 b 933 846 933 1024 958 935 b 529 565 894 704 743 600 b 492 560 506 563 492 560 b 475 538 481 558 474 549 b 497 519 476 526 486 519 b 533 525 510 522 522 524 b 638 532 557 528 594 532 b 982 346 774 532 944 499 b 938 133 1006 247 971 175 b 681 11 879 58 779 11 b 575 36 642 11 604 19 b 361 394 428 118 367 367 b 360 400 360 399 360 400 b 340 415 357 410 349 415 z m 1031 282 b 1021 354 1031 306 1028 329 b 700 569 990 481 878 556 b 972 835 842 625 940 719 b 893 1111 1001 939 971 1044 b 646 1182 840 1157 751 1182 b 17 785 393 1182 96 1046 b 46 78 -67 510 -54 213 b 190 0 85 26 133 0 l 190 0 b 207 0 196 0 201 0 b 328 67 260 6 300 28 b 375 225 360 110 372 168 b 556 0 413 142 471 49 b 681 -31 590 -19 635 -31 b 969 108 790 -31 904 24 b 1031 281 1010 160 1031 218 z "},"s":{"ha":957,"x_min":0,"x_max":0,"o":"m 335 825 b 338 782 335 810 336 796 b 303 763 325 775 313 769 z m 388 758 b 678 792 456 785 550 804 b 479 711 618 739 546 708 b 390 754 436 714 407 728 b 388 758 389 756 389 757 z m 168 382 b 689 581 249 597 486 644 b 714 593 699 578 710 583 b 700 619 717 604 711 615 b 289 590 697 621 465 690 b 74 590 260 579 147 543 b 3 746 31 617 6 669 b 333 1172 -8 954 167 1103 b 740 1161 504 1243 671 1239 b 765 908 800 1094 810 1003 b 713 828 751 879 733 853 b 376 799 565 849 454 828 b 417 979 369 863 400 946 b 407 1006 421 989 417 1001 b 379 997 397 1011 385 1007 l 219 693 b 226 667 215 683 218 672 b 254 671 236 661 247 663 b 351 742 254 672 285 708 b 356 733 353 739 354 736 b 478 671 379 694 419 674 b 729 785 565 667 660 711 b 744 783 735 785 739 783 b 951 601 860 763 931 700 b 717 117 985 442 879 225 b 226 111 565 18 346 15 b 168 382 171 156 115 239 z m 563 1263 b 318 1210 489 1263 404 1244 b -39 764 144 1138 -39 983 l -39 763 b -39 743 -39 757 -39 750 b 51 556 -33 653 -4 590 b 211 529 101 525 161 522 b 131 396 179 496 151 451 b 201 79 82 267 107 154 b 453 0 268 26 358 0 l 454 0 b 739 83 551 0 654 28 b 992 610 914 199 1028 435 b 760 821 968 722 886 797 b 801 892 776 843 790 867 b 771 1189 854 1001 842 1110 b 565 1263 726 1238 653 1263 z "},"t":{"ha":910,"x_min":0,"x_max":0,"o":"m 233 658 b 228 657 232 658 229 658 b 131 640 190 646 157 640 b 46 672 93 640 65 650 b 6 974 -6 726 -4 856 b 449 1154 17 1124 253 1154 b 743 1135 561 1154 671 1144 b 893 1031 818 1126 868 1090 b 824 694 935 926 889 775 b 679 629 789 651 740 629 b 532 664 601 629 532 664 b 507 660 524 668 514 665 b 506 635 501 653 500 642 b 665 267 507 633 579 521 b 651 133 683 215 678 171 b 422 40 611 76 521 40 b 213 129 326 40 247 75 b 253 631 108 296 250 626 b 249 651 256 638 254 646 b 233 658 244 656 239 658 z m -40 861 b 15 644 -40 771 -28 692 b 131 599 43 614 82 599 b 200 608 151 599 174 601 b 178 107 164 511 83 258 b 422 0 221 40 311 0 b 685 110 535 0 636 42 b 704 279 718 158 725 217 b 568 607 647 444 599 550 b 679 589 597 597 638 589 b 856 668 753 589 813 615 b 931 1046 931 760 978 926 b 749 1175 910 1097 861 1161 b 449 1194 675 1185 564 1194 b -35 976 139 1194 -24 1121 b -40 861 -37 938 -40 899 z "},"u":{"ha":979,"x_min":0,"x_max":0,"o":"m 531 242 b 513 231 524 242 517 238 b 307 53 513 229 432 86 b 3 292 131 7 24 108 b 179 1047 -19 489 40 892 b 304 1104 219 1092 261 1111 b 408 438 478 1078 428 586 b 394 346 399 382 394 346 b 411 324 393 335 400 325 b 435 340 422 321 432 329 b 447 431 435 342 440 376 b 579 914 469 561 514 799 b 781 1044 621 990 706 1044 b 978 742 888 1044 960 935 b 800 119 1003 454 903 232 b 649 31 749 63 690 29 b 586 61 622 33 603 42 b 551 219 542 114 551 218 b 538 240 551 229 546 238 b 531 242 535 242 533 242 z m 1022 647 b 1018 746 1022 679 1021 711 b 781 1085 990 1053 843 1085 b 543 933 692 1085 593 1022 b 471 739 515 885 492 814 b 311 1144 472 938 439 1125 b 150 1075 253 1153 199 1129 b -42 382 22 932 -42 601 l -42 381 b -37 288 -42 347 -40 315 b 318 14 -14 78 118 -39 b 511 156 406 38 472 107 b 556 35 515 117 526 68 b 646 -10 579 7 610 -7 b 653 -10 649 -10 650 -10 b 831 93 707 -10 771 28 b 1022 646 878 144 1022 329 z "},"v":{"ha":1004,"x_min":0,"x_max":0,"o":"m 186 1079 b 524 364 501 1079 524 371 b 542 344 524 353 532 344 b 564 361 553 343 563 351 b 865 982 588 535 688 982 b 936 960 888 982 911 975 b 983 660 1032 906 1007 749 b 481 40 908 381 663 40 b 460 42 474 40 467 42 b 1 849 278 69 8 544 b 139 1075 -1 981 46 1057 b 186 1079 156 1078 171 1079 z m 454 1 b 1022 650 672 -25 944 356 b 957 996 1068 822 1044 944 b 865 1022 925 1014 894 1022 b 551 519 690 1022 594 714 b 186 1119 525 742 442 1119 b 132 1114 168 1119 150 1118 b -39 847 17 1092 -42 1000 b 132 319 -36 700 29 499 b 454 1 238 136 357 14 z "},"w":{"ha":1121,"x_min":0,"x_max":0,"o":"m 258 1017 b 503 535 467 1017 499 614 b 503 504 503 517 503 506 b 525 486 504 494 514 485 b 544 507 536 486 544 496 b 543 535 544 507 544 518 b 614 717 543 576 546 710 b 618 717 615 717 617 717 b 718 554 657 717 693 658 b 732 486 726 513 732 488 b 756 471 735 476 744 469 b 772 494 767 474 774 483 b 758 563 772 496 768 524 b 801 1057 739 674 706 942 b 961 1106 838 1100 890 1117 b 1122 769 1111 1081 1126 885 b 821 42 1110 436 932 51 b 742 72 790 40 764 50 b 656 469 674 143 651 324 b 656 486 656 475 656 481 b 636 507 656 497 647 506 b 615 488 625 507 615 499 b 614 471 615 488 615 481 b 351 1 604 194 496 1 b 181 82 296 1 238 29 b 19 779 35 218 -40 543 b 207 1010 40 867 92 978 b 258 1017 225 1014 243 1017 z m 351 -40 b 628 263 479 -40 581 76 b 713 44 640 179 665 93 b 825 1 744 13 781 -1 b 1163 768 978 15 1150 458 b 968 1144 1171 990 1101 1124 b 769 1082 883 1158 817 1138 b 699 708 697 996 689 843 b 610 757 676 740 647 761 b 526 688 568 753 542 725 b 258 1057 499 850 431 1057 b 196 1049 239 1057 218 1054 b -21 789 90 1019 15 931 b 153 53 -83 542 -1 197 b 351 -40 218 -8 285 -39 z "},"x":{"ha":1054,"x_min":0,"x_max":0,"o":"m 510 349 b 490 336 501 349 494 343 b 211 44 489 333 369 44 b 46 153 157 44 101 81 b 7 311 3 211 -11 264 b 308 493 54 439 306 493 b 325 511 317 494 324 503 b 311 532 325 521 319 529 b 68 821 217 567 81 688 b 200 1033 60 904 104 976 b 308 1068 239 1056 275 1068 b 574 688 501 1068 572 690 b 593 671 575 678 583 671 l 593 671 b 613 688 603 671 611 678 b 867 1126 636 810 726 1126 b 965 1081 897 1126 931 1111 b 1033 935 1015 1038 1038 990 b 707 556 1018 751 710 557 b 700 528 697 550 694 538 b 728 521 706 518 718 515 b 893 561 728 521 801 561 b 1001 540 932 561 968 554 b 1054 401 1039 524 1058 474 b 813 36 1046 257 947 76 b 765 28 797 31 781 28 b 529 332 596 28 531 329 b 511 349 528 340 521 347 b 510 349 511 349 510 349 z m -42 269 b 14 128 -42 225 -24 176 b 504 269 203 -122 392 46 b 765 -12 535 174 613 -12 b 825 -3 785 -12 804 -10 b 1094 400 981 43 1086 242 b 1017 578 1100 490 1071 554 b 893 601 979 593 938 601 b 833 597 872 601 853 600 b 1074 932 932 675 1063 801 b 992 1111 1079 1000 1051 1060 b 867 1167 950 1149 907 1167 b 593 778 715 1167 629 914 b 308 1108 557 900 472 1108 b 179 1068 268 1108 225 1094 b 28 817 42 986 21 886 b 246 519 39 690 149 575 b -32 325 163 494 10 435 b -42 269 -39 307 -42 289 z "},"y":{"ha":796,"x_min":0,"x_max":0,"o":"m 174 447 b 363 551 231 525 301 567 b 460 465 410 542 442 513 b 285 421 414 443 350 421 b 174 447 244 421 207 429 z m 508 446 b 531 458 517 450 524 454 l 515 400 b 508 446 514 415 511 431 z m 151 414 b 285 381 192 392 236 381 b 471 426 354 381 421 403 b 467 238 483 358 472 281 b 463 206 465 224 464 213 b 481 185 463 194 469 186 b 503 199 490 182 500 189 l 585 500 b 575 522 586 510 583 518 b 551 522 568 528 558 528 b 496 485 551 522 531 504 b 371 592 472 542 431 578 b 139 469 278 614 190 540 b 82 531 118 486 99 506 b 63 1096 -35 690 -14 940 b 246 1249 111 1192 178 1247 l 249 1249 b 451 874 414 1249 450 1044 l 440 689 b 460 668 440 678 449 669 b 481 686 469 668 479 675 l 492 871 b 686 1229 508 1006 556 1229 b 697 1229 690 1229 693 1229 b 756 1193 724 1226 743 1215 b 642 557 829 1074 699 693 b 644 536 639 550 640 543 b 664 529 649 531 656 528 b 674 529 664 529 667 529 b 767 489 692 529 736 525 b 786 289 799 449 806 382 b 357 -15 746 99 536 -15 b 150 61 271 -15 197 11 b 151 414 61 154 88 306 z m -42 813 b 49 507 -42 704 -15 594 b 117 435 69 478 92 454 b 121 33 44 314 17 142 b 357 -56 176 -25 260 -56 b 825 281 553 -56 781 69 b 797 514 847 386 838 465 b 690 569 765 554 719 567 b 790 1214 733 678 878 1072 b 700 1269 771 1247 740 1265 b 686 1269 696 1269 692 1269 b 479 1029 592 1269 521 1188 b 249 1289 451 1200 372 1289 l 244 1289 b 26 1114 161 1288 82 1224 b -42 814 -15 1029 -42 922 z "},"z":{"ha":889,"x_min":0,"x_max":0,"o":"m 678 663 b 729 653 694 663 711 660 b 457 504 656 576 549 531 b 678 663 514 585 593 663 z m 278 429 b 368 443 299 432 331 436 b 313 336 344 401 325 364 z m 486 724 b 483 724 485 724 483 724 b 356 715 482 724 428 715 b 39 815 246 715 103 733 b 17 990 6 858 -3 918 b 378 1221 60 1160 232 1221 b 813 939 569 1221 786 1122 b 756 685 828 840 808 756 b 678 703 731 697 704 703 b 397 490 583 703 489 632 b 249 468 314 471 250 468 b 233 458 243 468 236 464 b 231 440 229 453 229 446 l 292 275 b 311 263 294 268 303 263 b 329 275 319 263 326 267 b 422 454 331 276 365 363 b 765 633 531 479 674 532 b 814 593 782 624 797 610 b 861 263 894 510 913 383 b 306 15 767 42 524 -33 b -1 313 111 60 -6 174 b 489 683 4 463 158 635 b 506 707 500 685 507 696 b 486 724 504 717 496 724 z m -42 303 b 296 -24 -42 149 88 24 b 899 246 533 -78 796 7 b 843 621 956 382 935 526 b 792 665 826 639 808 653 b 853 944 849 743 868 838 b 378 1261 824 1150 586 1261 b -24 1000 217 1261 26 1193 b 7 790 -46 915 -35 844 b 294 678 68 711 188 683 b -42 315 71 596 -36 447 b -42 304 -42 311 -42 308 z "}}}
